/* XPM */
static char *_e3199001992461ae46f9f1bebb3f8c0[] = {
/* columns rows colors chars-per-pixel */
"32 32 158 2 ",
"   c #343F44",
".  c #343F45",
"X  c #354045",
"o  c #354046",
"O  c #364147",
"+  c #364248",
"@  c #374249",
"#  c #374349",
"$  c #394349",
"%  c #38444A",
"&  c #38444B",
"*  c #39454B",
"=  c #39454C",
"-  c #3A464C",
";  c #3A464D",
":  c #3B464D",
">  c #3A474D",
",  c #3B474D",
"<  c #3B474E",
"1  c #3C474E",
"2  c #3B484E",
"3  c #3B484F",
"4  c #3E484D",
"5  c #3F494D",
"6  c #3C484E",
"7  c #3C484F",
"8  c #3D484F",
"9  c #3C494F",
"0  c #3D494F",
"q  c #3F494E",
"w  c #3E484F",
"e  c #3C4950",
"r  c #3D4950",
"t  c #3E4950",
"y  c #3D4A50",
"u  c #3D4A51",
"i  c #3E4A51",
"p  c #3E4B51",
"a  c #3D4B52",
"s  c #3E4B52",
"d  c #3E4C53",
"f  c #3F4C53",
"g  c #3F4D54",
"h  c #404B51",
"j  c #414B52",
"k  c #404C51",
"l  c #424C51",
"z  c #424D52",
"x  c #444D53",
"c  c #404D55",
"v  c #474F54",
"b  c #465056",
"n  c #485054",
"m  c #495156",
"M  c #4D565A",
"N  c #4C565C",
"B  c #4D575C",
"V  c #4D575D",
"C  c #4E575E",
"Z  c #4E585D",
"A  c #525A5E",
"S  c #515B60",
"D  c #525C61",
"F  c #545D62",
"G  c #545D63",
"H  c #565F64",
"J  c #576064",
"K  c #576166",
"L  c #586267",
"P  c #5B6367",
"I  c #586268",
"U  c #596368",
"Y  c #5B6469",
"T  c #5E6569",
"R  c #5E666A",
"E  c #5D666C",
"W  c #5D686D",
"Q  c #5E686D",
"!  c #60686C",
"~  c #606A6F",
"^  c #616A6F",
"/  c #646B6E",
"(  c #666D70",
")  c #646D72",
"_  c #6A6F73",
"`  c #697074",
"'  c #6B7478",
"]  c #6E7579",
"[  c #70767A",
"{  c #70777A",
"}  c #70797E",
"|  c #757B7E",
" . c #787D7F",
".. c #787F82",
"X. c #7B7F82",
"o. c #7A8082",
"O. c #7A8184",
"+. c #7E8385",
"@. c #7F8486",
"#. c #808588",
"$. c #808689",
"%. c #83888A",
"&. c #858A8D",
"*. c #868B8E",
"=. c #878C8E",
"-. c #8B8F91",
";. c #8B9093",
":. c #8C9194",
">. c #8E9397",
",. c #909598",
"<. c #919698",
"1. c #929699",
"2. c #93989A",
"3. c #959A9C",
"4. c #9A9EA0",
"5. c #9B9FA1",
"6. c #9EA2A4",
"7. c #A1A5A7",
"8. c #A2A6A8",
"9. c #A5A8AA",
"0. c #ACAFB1",
"q. c #AEB1B3",
"w. c #AEB2B4",
"e. c #AFB2B4",
"r. c #B0B2B4",
"t. c #B0B3B5",
"y. c #B2B5B7",
"u. c #B4B7B9",
"i. c #B7B9BA",
"p. c #B8BABC",
"a. c #BFC1C2",
"s. c #C0C2C4",
"d. c #C3C5C6",
"f. c #C4C6C7",
"g. c #C7C9CA",
"h. c #CED0D1",
"j. c #CFD1D2",
"k. c #D2D3D4",
"l. c #D2D4D5",
"z. c #D3D4D5",
"x. c #D6D7D8",
"c. c #D9DADB",
"v. c #DADBDC",
"b. c #DEDFE0",
"n. c #E0E1E2",
"m. c #E1E2E3",
"M. c #E4E4E5",
"N. c #E5E5E6",
"B. c #E5E6E6",
"V. c #E5E6E7",
"C. c #E6E6E7",
"Z. c #E9E9EA",
"A. c #E9EAEA",
"S. c #EBECEC",
"D. c #EEEEEF",
"F. c #EEEFEF",
"G. c #F2F2F3",
"H. c None",
/* pixels */
"H.H.H.H.H.H.H.H.H.H.H.H.g f f f f f f g H.H.H.H.H.H.H.H.H.H.H.H.",
"H.H.H.H.H.H.H.H.H.g f s s s s s s s s s s f c H.H.H.H.H.H.H.H.H.",
"H.H.H.H.H.H.H.c s s s s s s s s s s s s s s s s c H.H.H.H.H.H.H.",
"H.H.H.H.H.H.f s s s s s s s s s s s s s s s s s s f H.H.H.H.H.H.",
"H.H.H.H.H.f s s s s s s s s s s s s s s s s s s s s f H.H.H.H.H.",
"H.H.H.H.f s s s s s s s s s s s s s s s s s s s s s s f H.H.H.H.",
"H.H.H.g s s s s s s s s s s s s s s s s s s s s s s s s f H.H.H.",
"H.H.g s s s s s s s s s s s s s s s s s s s s s s s s s s c H.H.",
"H.H.s s s s s s s s s s s s s s s s s s s s s s s s f s s s H.H.",
"H.c s s s s s s s s s s s s s s s s s s s s s s s s f f s s c H.",
"H.s s 3 7 s 7 s s s s s s s s s 7 s s s 7 s s s s s s 7 s s f H.",
"H.7 ; * * ; 3 s 7 s s 7 7 7 ; ; ; ; 7 7 3 s s s s ; ; ; ; 3 s H.",
"s ; e.s.s.6.J ; 7 f s N u.; * *.;.; ; e.G s s s ; M <.r.] 7 7 f ",
"3 % M.#./ <.S.k 4 7 ; ; D.M X z.v.. x G.7 4 4 3 ; z.5.| h.>.3 f ",
"7 % M.T X . h.O.; 4 ; % g.#.q S.M.n | h.% ; s ; k F.k X P ,.3 s ",
"7 % M.` v X.Z.S Y ^ Y J 4.e.@.d.p.*.9.8.N P E Y N 8.n.6.x * ; s ",
"e % M.v.k.r.` S E ~ ' v / v.i.:.#.s.h.[ P ) W } x X D e.M.o.; s ",
"; & N.T % ; ; ; 3 e 3 ; * D.n.n 7 C.Z.4 * 7 3 7 H 2.X X X.h.* s ",
"s * N.E % 3 4 s s s s 4 * h.v.X X k.z.* 7 7 s 7 7 b.3.] d.7.; s ",
"s ; e.H ; s s s s s k 7 ; *.;.* * *.:.4 7 s s s 3 Z <.y.#.s 3 f ",
"H.s ; 7 s s s s s s s s 3 ; 3 ; 7 3 3 7 s f s 7 7 3 ; ; 7 7 f H.",
"H.s s s s s s s s s s s s s s s 7 s 7 s s s s s f f 7 s s 7 f H.",
"H.c s s s s s s s s s s s s s s f s s s s s s s f f s s s s g H.",
"H.H.s s s s s s s s s s s s s s s s s s s s s s f 7 s s s f H.H.",
"H.H.c s s s s s s s s s s s s s s s s s s s s s f f s s s g H.H.",
"H.H.H.f s s s s s s s s s s s s s s s s s s s s f 7 s f f H.H.H.",
"H.H.H.H.f s s s s s s s s s s s s s s s s s s s f f f f H.H.H.H.",
"H.H.H.H.H.f s s s s s s s s s s s s s s s s s s f 3 f H.H.H.H.H.",
"H.H.H.H.H.H.f s s s s s s s s s s s s s s s s s s f H.H.H.H.H.H.",
"H.H.H.H.H.H.H.c s s s s s s s s s s s s s s s s c H.H.H.H.H.H.H.",
"H.H.H.H.H.H.H.H.H.c f s s s s s s s s s s f c H.H.H.H.H.H.H.H.H.",
"H.H.H.H.H.H.H.H.H.H.H.H.g f f f f f f g H.H.H.H.H.H.H.H.H.H.H.H."
};
