/* XPM */
static char *_6ce9b4903ee4cd0cdfa461f7d11f3de[] = {
/* columns rows colors chars-per-pixel */
"128 128 85 1 ",
"  c #2D373C",
". c #2F393E",
"X c #303A3F",
"o c #333E43",
"O c #354046",
"+ c #384146",
"@ c #374249",
"# c #3A464C",
"$ c #3C484F",
"% c #3E4B52",
"& c #414A4E",
"* c #414D54",
"= c #455055",
"- c #495257",
"; c #44525A",
": c #4B5559",
"> c #4E585C",
", c #50575B",
"< c #515A5E",
"1 c #545D61",
"2 c #595F63",
"3 c #5C6266",
"4 c #5D6569",
"5 c #5F696C",
"6 c #606769",
"7 c #636A6D",
"8 c #666E71",
"9 c #686F72",
"0 c #6C7375",
"q c #6C7579",
"w c #717679",
"e c #747A7D",
"r c #797E81",
"t c #7D8385",
"y c #7F8688",
"u c #808487",
"i c #828689",
"p c #848A8C",
"a c #898D8F",
"s c #898E90",
"d c #8D9294",
"f c #909495",
"g c #939799",
"h c #959A9B",
"j c #999C9E",
"k c #9B9EA1",
"l c #9EA2A4",
"z c #A0A4A6",
"x c #A6AAA7",
"c c #A4A7A9",
"v c #A6A9AB",
"b c #A9ACAE",
"n c #ACAEB0",
"m c #ADB1B2",
"M c #B2B4B5",
"N c #B4B8B5",
"B c #B5B7B9",
"V c #B6B8BA",
"C c #B9BBBD",
"Z c #BEC1C2",
"A c #C3C5C6",
"S c #C5C7C9",
"D c #C6C8C9",
"F c #CACCCC",
"G c #CED1CF",
"H c #CDCFD0",
"J c #CED1D1",
"K c #D2D4D4",
"L c #D6D8D7",
"P c #D5D7D8",
"I c #D7D8D9",
"U c #DBDCDD",
"Y c #DFE1DF",
"T c #DEDFE0",
"R c #DFE0E1",
"E c #E3E4E4",
"W c #E7E8E8",
"Q c #EAEBEB",
"! c #F0F1EE",
"~ c #EFF0F0",
"^ c #F4F4F4",
"/ c #F9F9F6",
"( c #F7F7F8",
") c #FEFEFE",
"_ c None",
/* pixels */
"________________________________________________________>;;;;;;%;;;;;;;;________________________________________________________",
"__________________________________________________>;;%%%%%%%%%%%%%%%%%%%%%%;;;__________________________________________________",
"______________________________________________;;%%%%%%%%%%%%%%%%%%%%%%%%%%%%%%%%;>______________________________________________",
"___________________________________________>;%%%%%%%%%%%%%%%%%%%%%%%%%%%%%%%%%%%%%%%>___________________________________________",
"________________________________________>;%%%%%%%%%%%%%%%%%%%%%%%%%%%%%%%%%%%%%%%%%%%%;;________________________________________",
"______________________________________;%%%%%%%%%%%%%%%%%%%%%%%%%%%%%%%%%%%%%%%%%%%%%%%%%%;______________________________________",
"____________________________________>%%%%%%%%%%%%%%%%%%%%%%%%%%%%%%%%%%%%%%;%%%%;%%%%%%%%%;;____________________________________",
"__________________________________;%%%%%%%%%%%%%%%%%%%%%%%%%%%%%%%%%%%%%%%%%%%%%%%%%%%%%%%%%%;__________________________________",
"________________________________;%%%%%%%%%%%%%%%%%%%%%%%%%%%%%%%%%%%%%%%%%%%%%%%%%%%%%%%%%%%%%%;________________________________",
"______________________________>*%%%%%%%%%%%%%%%%%;%%%%%%%%%%%%%%%%%%%%%%%%%%%%%%%%%%%%%%%%%%%%%%*>______________________________",
"_____________________________;%%%%%%%%%%%%%%%%%%%%%%%%%%%%%%%%%%%%%%%%%%%%%%%%%%%%%%%%%%%%%%%%%%%%;_____________________________",
"___________________________;%%%%%%%%%%%%%%%%%%%%%%%%%%%%%%%%%%%%%%%%%%%%%%%%%%%%%%%%%%%%%%%%%%;%%%%%;___________________________",
"__________________________;%%%%%%%%%%%%%%%%%%%%%%%%%%%%%%%%%%%%%%%%%%%%%%%%%%%%%%%%%%%%%%%%%%%%%%%%%%;__________________________",
"_________________________%%%%%%%%%%%%%%%%%%%%%%%%%%%%%%%%%%%%%%%%%%%;%%%%%%%%%%%%%%%%%%%%%%%%%%%%%%%%%;_________________________",
"_______________________>%%%%%%%%%%%%%%%%%%%%%%%%%%%%%%%%%%;%%%%%%%%%%%%%%%%%%%%%%%%%%%%%%%%%%%%%%%%%%%%*>_______________________",
"______________________;%%%%%%%%%%%%%%;%%%%%%%%%%%%%%%%%%%%%%%%%%%%%%%%%%%%%%%%%%%%%%%;%%%%%%%%%%%%%%%%%%%;______________________",
"_____________________;%%%%%%%%%%%;%%%%%%%%%%%%%%%%;%%%%%%%%%%%%%%%%%%%%%%%%%%%%%%%%%%%%%%%%%%%%%%%%%%%%%%%;_____________________",
"____________________;%%%%%%%%%%%%%%%%%%%%%%%%;%%%%%%%%%%%%%%*%%%%%%%%%%%%%%%%%%%%%%%%%%%%%%%%%%%%%%%%%%%%%%;____________________",
"___________________;%%%%%%%%%%%%%%%%%%%%%%%%%%%%%%%%%%%%%%%%%%%%%%%%;%%%%%%%%%%%%%%%%%%%%%%%%%%%%%%%%%%%%%%%;___________________",
"__________________;%%%%%%%%%%%%%%%%%%%%%%%%%%%%%%%%%%%%%%%%%%%%%%%%%%%%%%%%%%%;%%%%%%%%%%%%%%%%%%%%%%%%%%%%%%;__________________",
"_________________;%%%%%%%%%%%%%%%%%%%%%%%%%%%%%%%%%%%%%%%%*%%%%%%%%%%%%%%%%%%%%%%%%%%%%%%%%%%%%%*%%%%%%%%%%%%%;_________________",
"________________;%%%%%%%%%%%%%%%%%%%%%%%%%%%%%%%%%%%%%*%%%%%%%%%%%%%%%%%%%%%%%%%%%%%%%%%%%%%;%%%%%%%%%%%%%%%%%%;________________",
"_______________;%%%%%%%%%%%*%%%%%%*%%%%%%%%%%%%%%%%%%%%%%%%%%%*%%%%%%%%%%%%%%%%%%%%%%%%%%%%%%%%%%%%%%%%%%%%%%;%%>_______________",
"______________>%%%%%%%%%%%%%%%%%%%%%%%%%%%%%%%%%%%%%%%%%%%%%%%%%%%%%%%%%%%%%%%%%;%%%%%%%%%%%%%%%%%%%%%%%%%%%%%%%%;______________",
"______________%%%%%%%%%%%%%%%%%%%%%%%%%%%%%%%%%%%%%%%%%%%%%%%%%%%%%%%%%%%%%%%%%%%%%%%%%%%%%;%%%%%%%%%%%%%%%%%%%%%%______________",
"_____________;%%%%%%%%%%%%%%%%%%%%%%%%%%%%%%%%%%%%%%%%%%%%%%%%%%%%%%%%%%%%%%%%%%%%%%%%%%%%%%%%%%%%%%%%%%%%%%%%%%%%;_____________",
"____________;%%%%%%%%%%%%%%%%%%%%%%%%%%%%%%%%%%%%%%%%%%%%%%%%%%%%%%%%%%%%%%%%%%%%%%%%%%%%%%%%%%%%%%%%%%%%%%%%%%%%%%;____________",
"___________>%%%%%%%%%%%%%%%%%%%%%%%%%%%%%%%%%%%%%%%%%%%%%%%%%%%%%%%%%%%%%%%%%%;%%%%%%%%%%%%%%%%%%%%%%%%%%%%%%%%%%%%%>___________",
"___________%%%%%%%%%%%%%%%%%%%%;%%%%%%%%%%%%%%%%%%%%%%%%%%%*%%%%%%%%%%%%%%%%%%%%%%%%%%%%%%%%%%%%%%%%%%%%%%%%%%%%%%%%%___________",
"__________;%%%%%%%%;%%%%%%%%%%%%%%%%;%%%%%%%%%%%%%%%%%%%%%%%%%%%%%%%%%%;%%%%%%%%%%%%%%%%%%%%%%%%%%%%%*%%%%%%%%%%%%%%%;__________",
"_________>%%%%%%%%%%%%%%%%%%%%%%%%%%%%%%%%%%%%%%%%%%%%%%%%%%%%%%%%%%%%%%%%%%%%%%%%%%%%%%%%%%%%%%%%%%%%%%%%%%%%%%%%%%%%>_________",
"_________%%%%%%%%%%%%%%%%%%%%%%%%%%%%%%%%%%%;%%%%%%%%*%%%%%%%%%%%%%%%%%%%%%%%%%%%%%%%%%%%%%%%%%%%%%%%%%%%%%%%%%%%%%%%%;_________",
"________>%%%%%%%%%%%%%%%%%%%%%%%%%%%%%%%%%%%%%%%%%%%%%%%%%%%%%%%%%%%%%%%%%%%%%%%%%%%%%%%%%%%%%%%%%%%%%%%%%%%%%%%%%%%%%%;________",
"________%%%%%%%%%%%%%*%%%%%%%%*%%%%%%%%%%%%%%%%%%%%%%%%%%%%%%%%%%%%%%%%%*%%%%%%%%%%%%%%%%%%%%%%*%%%%%%%%%%%%%%%%%%%%%%;%________",
"_______;%%%%%%%%%%%%%%%%%%%%%%%%%%%%%%%%%%*%%%%%%%%%%%%*%%%%%%%%%%%%%*%%%%%%%%%%%%%%%%%%%*%%%%%%%%%%%%%%%%%%%%%%%%%%%%%%;_______",
"_______%%%%%%%%%%%%%%%%%%%*%%%%%%%%%%%%%%%%%%%%%%%%%%%%%%%%%%%%%%%%%%%%%%%%%%%%%%%%%%%%%%%%%%%%%%%%;%%%%%%%%%%%%%%%%%%%%%_______",
"______;%%%%%%%%%%%%%%%%%%%%%%%%%%%%%%%%*%%%%%%%%%%%%%%%%%%%%%%%%%%*%%%%%%%%%%%%%%%%%%%%%%%%%%%%%%%%%%%%%%%%%%%%%%%%%%%%%%;______",
"______%%%%%%;%%%%%%%%%%%%%%%%%%%%%%%%%%%%%%%%*%%%%%%%*%%%%%%%%*%%%%%%%%%%%%%%%%%%%*%%%%%%%%%%%%%%%%%%%%%%%%%%%%%%%%%%%%%%*______",
"_____;%%%%%%%%%%%%%%%%%%%%%%*%%%%%%%%%%%%%%%%%%%%%%%%%%%%%%%%%%%%%%%%%%%%%%%%%%%%%%%%*%%%%%%%%%%%%%%%%%%%%%%%%%%%%%%%%%%%%;_____",
"_____%%%%%%%%%%%%%%%%%%%%%%%%%%%%*%%%%%%%%%%%%%%%%%%%%%%%%%%%%%%%%%%%%%%%%%%%%%%%%%%%%%%%%%%%%%%%%%%%%%%%%%%%%%%%%%%%%%%%%%_____",
"____;%%%%%%%%%%%%%%%%%%%%%%%%%%%%%%%%%%%%%%%%%*%%%%%%%%%%%%%%%%%%%%%*%%%%%%%%%%%%%%%%%%%%%%%%%%%%%%%%%%%%%%%%%%%%%%%%%%%%%%>____",
"____;%%%%%%%%%%%%%%%%%%%%%%%%%%%%%%%%%%%%%%%%%%%%%%%%%%%%%%%%%%%%%%%%%%%%%%%%%%%%%%%%%%%%%%%%%%%%%%%%%%%%%%%%%%%%%%%%%%%%%%;____",
"____%%%%%%%%%%%%%%%%%%%%%%%%%%%%%%%%%%%%%%%%%%%%%%%%%%%%%%%%%%%%%%%%%%%%%%%%%%%%%%%%%*%%%%%%%%%*%%%%%%%%%%%%%%%%%%%%%%%%%%%%____",
"___;%%%%%%%%%%%%%%$%%%$%%%%%%%%%%%%%%%%%%%%%%%%%%%%%%%%%%%%%%%%%%%%%%%%%%%%%%%%%%%%%%%%%%%%%%%%%%%%%%%%%%%%%%$%%%%%%%%%%%%%%;___",
"___;%%%%$%%%%%%#%$$%%$$%%%%%%%%%%%%%%%%%%%%%%%%%%%%%%%%%%%%%%%$%%%%%%%%%%%%%%%$%%$$%%%%%%%%%%%%%%*%%%%%%%$%$$%%%%%%$%%%%%%%%;___",
"___%%%#%$%#$##$#$#$##%#%%#%%%%%%%%%%%%%%%%%%%%%%$$$$%%%%%%%%%%%$$$$%%%%%#%%%%$$%%%%%%%%%%%%%%%%%%%%%%%%%$$$$$$#%$$$%%%%%%%%%%___",
"__;%%%%%$###############%##%%%%%%%%%%%%%%%%$%%$$%$$$#%%#%%%$$$%##$%$$%%%%%%%#$#%#%%%%%%%%%%%%%%%%%%%%%#$#%######$$$$$$%%%%%%%;__",
"__;%%%######@@@@@@@#@#####%#%#%%%%%%%%%%%%%%$$$$$##$#$%$$%%#$###$##$#%%%%%##$#%###%%%%%%%%%%%%%%%%%%%$$######@#####$$%%%%%%%%;__",
"__%%%$$##@@OOOOOOO@OO@+@#####%%%%%%%%%%%%%%%$$$#######$$%$$$####@##$$$$$$$#####@###%$%%%%%%%%%%%%%%#$###@@++@@@@o####$$$%$%%%%__",
"__%%%$##7zzllllzlllls9*@@++####%%%%%%%%%%%%$$$#tzzc4##$$$$$###pzlh@@#$$$$$##;zzcf##%#%%%%%%%%%%%$%$%##+O@@:qdhe<#oo####%$%%%%%__",
"_;%%%##od))))))))))))))~z$@@##$$%%%%%%%%%%%%$##l)))c##$$$$##@@~)))>@##$$$###y)))A##$%%%%%%%%%%%%%####@@*c^))))))(F4o+###$$%%%%;_",
"_;%%$$##s))))))))))))))))WtO@##%%%%%%%%%%%$$$#@0)))Ho@#####+o9))))f@@######@m)))g####%%%%%%%%%%%%$##@@h~)))))))))))m*@##$$$%%%;_",
"_%%%###os)))WAAASSSSU^)))))t@@#$$%%%%%%%%%%$####())(@#####@OOc))))Ao@@###+@OP)))4@#$$%%%%%%%%%%%#$#@Oj))))(USZP~))))T$@##%$%%%;_",
"_%$%$##os)))CXoXoooooowE)))^:@##$%%%%%%%%%$$##OOJ)))5o@@##@OoI))))^O@@@##@O#)))~O@##$%$%%%%%%%%####@e)))(b&ooooouW)))V@@##$%%%%_",
"_%%####os)))CXoooO@OOoo+U)))S@@##$%%%%%%%%%%$#@Oc)))h@o##@+o*))))))0oO@@@@O0)))SO@##$%$*%%%%%%%%##@OW)))poooo@ooO$E)))p###$%%%%_",
"_%%%$##os)))CXoO@@#++Ooo7)))(@@#$$%%%%%%%%$%##@Ow)))Zoo@@@Oou))))))voO@@@@ok)))kO@#$$$%%%%%%*%%###@<)))FXooOo@@@@o0)))F@#$$%%%%_",
";%%%$#@os)))Coo@@@#@@OOooP)))3O+#$$$%%%%%%#%###O$/))WOOOOOOoC))(F))Uoo@@OooD)))8O@##$$*$$%%%%$%###@p)))zoooo@@@@@ooE))W##$$$%%%;",
";%%%##@os)))CooO@####@OooC)))po@#$$$%%#%#%%###@OoP))),oOOOoo~))Pc)))-oOoOOoQ))^oOO##$$$%$%$$$$$$#@Ok)))hXXoo@@#@@@@S))):##$%%%%;",
"%%%%$#@os)))Coo@@###@@Ooob)))gOO@##$%#%#$$$##@#Oob)))pooooo4)))me)))aooooo1)))FoO@###$$$$$$$$$###@@0)))AoooOO+#@#@@*:::$$$%%%%%;",
";%%%$#@os)))Coo+@#@#@@OoXS)(/0OO@#######$#$###OOoe)))Boooook)))eo)))Zooooos)))zoO@@##$##$$##$$##@@O#^)))pooOo@@@@@@@@##$$$%$%%%;",
";%%$###Os)))Cooo@@#O+@oo+~)(($OO@@####@#####@#OOo&())UXooooH))(o K))^oXoooM)))9oO#@#####+######@@@@om))))z&ooOO@@@@#####$$$%%%%*",
"%%%%###os)))VXooO@OOOOooz))/Uo$&@@@@*%#@##**=&*OooU)))&XXo+)))F  j)))9oXXoU))^oo+$*$@#@&*$#+#**&**@o+K()))~b8OoOo@@@@###$$%%%%%;",
";%%%$#oos)))CXoooOOOooOj))((t6))Rq@x))L8#h)))))>OoM)))eXXXr)))h  3)))cXoX#)))Koo@/)^h--!)^f%7)))))b@O:K))))))QM0o@o@@###$%%%%%%*",
"%%%%##@os)))D000qqwwsnU))/)Moo#0))N%$0^)l#$$$9)<oou)))cXXXN))),XXXW))I ..e)))co++#=A)Y:#:G)E<$$$&Fm@OOos^)))))))Wn1o@@#$$$%%%%%*",
"%%%%##@os)))))))))))))))))G%O%qq>m)Lyq4N)Jyq0>C=oo&)))K  XE))EXooXV)))&X c)))eoo@8q5yW^lq1s~Qjqq:pt@@@OO=lU))))))))go@+##%%$%%%*",
";%$$$#@Oa)))))))))))))))WyOOO8/(g@9W)/d@t~)))4#@+ooE))(X <)))noooXt)))i  J))(#oo#))H$;J()J@*G))/h#@#@@@OO@o1lI))))))P:@###$$%%%;",
";%$$$#@oa)))(WWQWQWWIZxp#@@@@#*;##@%**$#@#==*##@+@oC)))8 g)))woooo$)))C .^))Io++@**%###%*%#@#==*$#@@##@@@@OOOo:hE))))DO@##$%%%%;",
";%%$##@os)))CXXXoooOOOO@@@@#####################+@oa)))h D))(OoooooG))! 4)))mo@+@#$#################@@#@@@@@OOOoOh()))h@+$$$%%$;",
";%$$##@Os)))VXooOO@@@@########%##$#$##$####$$##$#@o1)))A ())Dooooool)))4d)))to+###$$#$#$#$##$##$######@#@#@#@@OOood)))WO@#$$$%%;",
";%%%$#@os)))CXoo@+#+######$%%##%$$$$$#$$#%#%$$$###ooW))E3)))do@@OOo4)))dm)))*o+###$$%$$$$$%#$$$###$;--%@#@#@@@@ooooU)))-@#$$%%%%",
";%$$##+os)))CooO@####$$$$#%%%%%%$$%$$%#%%$%%%$$$##ooA))(g))):o@@+OooW))CF))Eoo##$%$%%$%$$$$$%%$$##8)))NO@@#@@@@OoXoB)))r@#$$%%%;",
";%%%$#@Os)))CoO@##$$#%$$%%%$%%%%%%%%%%%%$%$%%$%$#@#og)))F))Uoo@@#@@oC))EW))Vo@@$#$%%$%$%%%%%%#$$###^))LOO@@#@@@OooXC)))0@#$$%%%;",
"_%%$$##os)))CoO@##$$%$%%%%%%%%%%%%%%%%%%%%%%%%%$$#@o3))))))bo@@##+Oou))))))poO##$%%%%%%%%%%%%%%$$##L)))4OOO@@@OOoooE)))#@##$%%%_",
"_%$$$##os)))CO@#$$$%%%%%%%%%%%%%%%%%%%%%%%%%%%%$$#@@o~)))))0o@####@O&)))))):O###$%%%%%%%%%%%%%$$##@l)))W-oOOOOoooob)))P@@#$%%%%_",
"_%%%$##os)))CO+##$%%%%%%%%%%%%%%%%%%%%%%%%%%%%%%$##ooD))))~OO@####@OoK))))EoO##%%%%%%%%%%%%%%%%$##@#A)))~l&OoOoo4C))))w@##$$%%%_",
"_;%$$$#os)))CO##$$$%%%%%%%%%%%%%%%%%%%%%%%%%%%%%$$#@Ok))))So@###$##@Oz))))ZoO##$%%%%%%%%%%%%%%%%$##@#J)))))UFCHE)))))p@@##$$%%;_",
"_;%$$$#@s)))C###$%%%%%%%%%%%%;%%%%%%%%*%%%%%%%%%%###@8))))s@@####$##@7))))f@@##%%%%%%%%%%%%%%%%%%###@*c^)))))))))))~d@@##$%%%%*_",
"_;%%$###s)))Co#$$$%%%%%%%%%%%%%%%%%%%%%%%%%%%%%%$%##+#())):@##$$$$##@@~)))1@###%%%%%%%%%%%%%%%%%%$$##OO*zW)))))))Eg#@@##$$%%%%;_",
"__%%$$##7zzzr$#$$%%%%%%%%%%%%%%%%%%%%%%%%%%%%%%%%#$##@szlh@##%%$$$$##@izzl@##%%%%%%%%%%%%%%%%%%%%$$####@OO*8sjy7*OO@####$%%%%%__",
"__%%%%########$$$%%%%%%%%%%%%%%%%%%%%%%%%%%%%%%%%%$#####@###$##%%$$$###@#@####$%%%%%%%%%%%%%%%%%%$%$#####O+@@@@OO@@###$$$%%%%%__",
"__;%%%###$##$#$%%%%%%%%%%%%%%%%%%%%%%%%%%%%%%%%%%%%$$######%$%%%%$%$$$$#####$%%%%%%%%%%%%*%%%%%%%$%$$$######@########$%#%%%%%;__",
"__;%%%%%%$$$$%$%%%%%%%%%%%%%%%%%%%%%%%%%%%%%%%%%%%%%%%%#$$#%$%%$%%$%$$$$$$%%$%%%%%%%%%%%%%%%%%%%%%%%%$%$#$#######$$$$$%%%%%%%;__",
"___%%%%%%%%$%$%$%%%%%%%%%%%%%%%%%%%%%%%%%%*%%%%%%%%%%$%%%#%%%%%%%%%$%%$$%$%%%$%%%%%%%%%%%%%%%%%%%%%%%%%$%$#$%#$$$$$%%%%%%%%%%___",
"___*%%%%%#%$%%%%;%%%%%%%%%%%%%%%%%%%%%%%%%%%%%%%%%%%$%%#%%$%%%%%%%%%$$%%%%%%%%%%%%%%%%%%%%%%%%%%%%%%%$%%%%%$%%%%$%$%%%%%%%%%*___",
"___;%%%%%%%%%%%%%%%%%%%%%%%%%%%%%%%%%%%%%%%%%%%%%%%%%%%%%%%%%%%%%%%%%%%%%%%%%%%%%%%%%%%%%%%%%%%%%%%%%%%%%%%%%%%%%%%%%%*%%%%%;___",
"____%%%%%%%%%%%%%%%%%%%%%%%%%%%%%%%%%%%%%%%%%%%%%%%%%%%%%%%%%%%%%%%%%%%%%%%%%%%%%%%%%%%%%%%%%%%%%%%%%%%%%%%%%%%%%%%%%%%%%%%%____",
"____;%%%%%%%%%%%%%%%%%%%%%%%%%%%%%%%%%%%%*%%%%%*%%%%%%%%%%%%%%%%%%%%%%%%%%%%%%%%%%%%%%%%%%%%%%%%%%%%%%%%%%%%%%%%%%%%%%%%%%%;____",
"____;%%%%%%%%%%%%%%%%%%%%%%%%%%%%*%%%%%%%%%%%%%%%%%%%%%%%%%%%%%%%%%%%%%%%%%%*%%%%%%%%%%%%%%%%%%%%%%%%%%%%%%%%%%%%%%%%%%%%%*;____",
"_____%%%%%%%%%%%%%%%%%%%%%%%%;%%%%%%%%%%%%%%%%%%%%%%%%%%%%%%%%%%%%%%%%%%%%*%%%%%%%%%%%%%%%%%%%%%%%%%%%%%%%%%%%*%%%%%%*%%%%%_____",
"_____;%%%%%%%%%%%%%%%%%%%%%%%%%%%%%%%%%%%%%%*%%%%%;%%%%%%%;%%%%%%%%%%%%%%%%%%%%%%%%%%%%%%%%%%%%%%%%%%%%%%%%%%%%%%%%%%%%%%%;_____",
"______%%%%%%%%%%%%%%%%%%%%%%%%%%%%%%%%%;%%%%%%%%%%%%%%%%%%%%%%%%%%%%%%%%%%%%*%%%%%%%%%%%%%%%%%%%%%%%%%%%%%%%%%%%%%%%%%%%%%______",
"______;%%%%*%%%%%%%%%%%%%%%%%%%%%%%%%%%%%%%%%%%%%%%%%%%%%%%%%%%%%%%%%%%%%%%%%%%%%%%%%%*%%*%%%%%%%%%%%%%%*%%%%%%%%%%%%%%%%;______",
"_______%%%%%%%%%%%%;%%%%%%%%%%%%%%%%%%%%%%%%%%%*%%%%%%%%%%%%%%%%%%%%%%%%%%%%%%%%%%%%%%%%%%%%%%%%%%%%%%%%%%%%%%%%%%%%%%%%%_______",
"_______;%%%%%%%%%%%%%%%%%%%%%%%%%%%%%%%%%%%%%%%%%%%%%%%%%%%%%%%%%%%%%%%%%%*%%%%%%%%%%%%%%%%%%%%%%%%%%%%%%%%%*%%%%%%%%%%%;_______",
"________*%%%%%%%%%%%%%%%%%%%%%%%%%%%%%%%%%%%%%%%%%%%%%%%%%%%%%%%%%%%%%%*%%%%%%%%%%%%%%%%%%%%%%%%%%%%%%%%%%%%%%%%%%%%%%%%________",
"________;%%%%%%%%%%%%%%%%%%%%%%%%%%%%%%%%%%%%%%%%%%%%%%%%%%%%%%%%%%%%%%%%%%%%%%%%%%%%%%%%%%%;%%%%%%%%%%%%%%%%%%%%%%%%%%;________",
"_________;%%%%%%%%%%%%%%%%%%%*%%%%%%%%%%%%%%%%%%%%;%%%%%%%%%%%%%%%%%%%%%%%%%%%%%%%%%%%%%%%%%%%%%%%%%%%%%%%%%%%%%%%*%%%;_________",
"_________;%%%%%%%%%%%%%%%%%%%%%%%%%%%%%%%%;%%%%%%%%%%%%%%%%%%%%%%%%%%%%%%%%%%%%%%%%%%%%%%%%%%%%%%%%%%%;%%%%%%%%%%%%%%%;_________",
"__________;%%%%%%%%%%%%%%%%%%%%%%%%%%%%%%%%%%%%%%%%%%%%%%%%;%%%%%%%%%%%%%%%%%%%%%%%%%%%%%%%%%%%%%%%%%%%%%%%%%%%%%%%%%;__________",
"___________*%%%%%%%%%%%%%%%%%%%%%%%%%%%%%%%%%%%%%%%%%%%%%%%%%%%%%%%%%%%%%%%%%%%%%%%%%%%%%%%%%%%%%%%%%%%%%%%%%%%%%%%%%___________",
"___________;%%%%%%%%%*%%%%%%%%%%%%%%%%%%%%%%%%%%%%%%%%%%%%%%%%%%%%%%%;%%%%%%%%%%%%%%%%%%%%%%%%%%%%%%%%%%%%%%%%%%%%%%;___________",
"____________;%%%%%%%%%%%%%%%%%%%%%%%%%%%%%%%%%%%%%%%%%%%%%%%%%%%%%%%%%%%%%%%%%%%%%%%%%%%%;%%%%%%%%%%%%%%%%%%%%%%%%%;____________",
"_____________;%%%%%%%%%%%;%%%%%%%%%%%%%%%%%%%%%%%%%%%%%%%%%%%%%%%%%%%%%%%%%%%%%%%%;%%%%%%%%%%%%%%%%%%%%%%%%%%%%%%%;_____________",
"______________%%%%%%%%%%%%%%%%%%%%%%%%%%%%%%%%%%%%%%%%%%%%%%%%%%%%%%%%%%%%%%;%%%%%%%%%%%%%%%%%%%%%%%%%%%%%%%%%%%%%______________",
"______________>%%%%%%%%%%%%%%%%%%%%%%%%%%%%%%%%%%%%%%%%%%%%%%%%%%%%%%%%%%%%%%%%%%%%%%%%%%%;%%%%%%%%%%%%%%%%%%%%%%>______________",
"_______________;%%%%%%%%%%%%%%%%%%%%%;%%%%%%%%%%%%%%%%%%%%%%%%%%%%%%;%%%%%%%%%%%%%%%%%%%%%%%%%%%%%%%%%%%%%%%%%%%;_______________",
"________________;%%%%%%%%%%%%%%%%%%%%%%%%%%%%;%%%%%%%%%%%%%%%%%%%%%%%%%%%%%%%%%%%%%%%%%%%%%%%%%%%%%%%%%%%%%%%%%;________________",
"_________________;%%%%%%%%%%%%%%%%%%%%%%%%%%%%%%%%%%%%%%%%%%%%%%%%%%%%%%%%%%%%%%%%%%%%%%%%%%%%%%%%%%%%%%%%%%%%;_________________",
"__________________;%%%%%%%%%%%%%%%%%%%%%%%%%%%%%%%%%%%%%%%%%%%%%%%%%%%%%%%%%%%%%%%%%%%%%%%%%%%%%%%%%%%%%%%%%%;__________________",
"___________________%%%%%%%%%%%%%%%%%%%%%%%%%%%%%%%%%%%%%%%%%%%%%%%%%%%%%%%%%%%%%%%%%%%%%%%%%%%%%%%;%%%%%%%%%;___________________",
"____________________;%%%%%%%%%%%%%%%%%%%%%%%%%%%;%%%%%%%%%%%%%%%%%%%%%%%%%%%%%%%%%%%%%%%%%%%%%%%%%%%%%%%%%%;____________________",
"_____________________>%%%%%%%%%%%%%%%%%%%%%%%%%%%%%%%%%%%%%;%%%%%%%%%%%%%%%%%%%%%;%%%%%%%%%%%%%%%%%%%%%%%%;_____________________",
"______________________>%%%%%%%%%%%%%%%%%%%%%%%%%%%%%%%%%%%%%%%%%%%%%%%%%%%%%%%%%%%%%%%%%%%%%%%%%%%%%%%%%%;______________________",
"_______________________>%%%%%%%%%%%%%%%%%%%%%%%%%%%%%%%%%%%%%%%%%%%%%%%%%%%%%%%%%%%%%%%%%%%%%%%%%%%%%%%%>_______________________",
"_________________________;%%%%%%%%%%%%%%%%;%%%%%%%%%%%;%%%%%%%%%%%%%%%%%%%%%%;%%%%%%%%%%%%%%%%%%%%%%%%;_________________________",
"__________________________;%%%%%%%%%%%%%%%%%%%%%%%%%%%%%%%%%%%%%%%%%%%%%%%%%%%%%%%%%%%%%*%%%%%%%%%%%%;__________________________",
"___________________________>%%%%%%%%%%%%%%%%%%%%%%%%%%%%%%%%%%%%%%%%%%%%%%%%%%%%%%*%%%%%%%%%%%%%%%%%>___________________________",
"_____________________________;%%%%%%%%%%%%%%%%%%%%%%%%%%%%%%%%%%%%%%%%%%%%%%%%%%%%%%%%%%%%%%%%%%%%;_____________________________",
"______________________________>;%%%%%%%%%%%%%%%%%%%%%%%%%%%%%%%%%;%%%%%%%%%%%%%%%%%%%%%%%%%%%%%%;>______________________________",
"________________________________;%%%%%%%%%%%%%%%%%%%%%%%%%%%%%%%%%%%%%%%%%%%%%%%%%%%%%%%%%%%%%%>________________________________",
"__________________________________;%%%%%%%%%%%%%%%%%%%%%%%%%%%%%%%%%%%%%%%%%%%%%%%%%%%%%%%%%%;__________________________________",
"____________________________________;%%%%%%%%%%%%%%%%%%%%%%%%%%%%%%%%%%%%%%%%%%%%%%%%%%%%%%;____________________________________",
"______________________________________;;%%%%%%%%%%%%%%%%%%%%%%%%%%%%%%%%%%%%%%%%%%%%%%%%;;______________________________________",
"________________________________________>;%%%%%%%%%%%%%%%%%%%%%%%%%%%%%%%%%%%%%%%%%%%%;;________________________________________",
"___________________________________________;;%%%%%%%%%%%%%%%%%%%%%%%%%%%%%%%%%%%%%%;;___________________________________________",
"______________________________________________;;%%%%%%%%%%%%%%%%%%%%%%%%%%%%%%%;;;______________________________________________",
"__________________________________________________;;;%;%%%%%%%%%%%%%%%%%%%%;;>__________________________________________________",
"________________________________________________________;;;;;;;%;;;;;;;;________________________________________________________"
};
