/* XPM */
static char *e350806052474a82c7309f2614c02847[] = {
/* columns rows colors chars-per-pixel */
"64 64 70 1 ",
"  c #333E44",
". c #354046",
"X c #384247",
"o c #374249",
"O c #3A464C",
"+ c #3C484F",
"@ c #3E4B52",
"# c #40494F",
"$ c #414D55",
"% c #465156",
"& c #475258",
"* c #4B555A",
"= c #4E595E",
"- c #515A5F",
"; c #535C61",
": c #576165",
"> c #596267",
", c #5D656A",
"< c #5F686D",
"1 c #616A6E",
"2 c #656D72",
"3 c #697276",
"4 c #6E767A",
"5 c #70777C",
"6 c #72797D",
"7 c #767D81",
"8 c #7B8286",
"9 c #7E8588",
"0 c #80868A",
"q c #848A8E",
"w c #878D90",
"e c #888E92",
"r c #8D9295",
"t c #8F9598",
"y c #91979A",
"u c #949A9C",
"i c #989D9F",
"p c #999EA1",
"a c #9DA2A4",
"s c #A0A6A6",
"d c #A1A6A8",
"f c #A6AAAD",
"g c #A8ADAF",
"h c #AAAEB0",
"j c #ADB1B3",
"k c #B1B5B7",
"l c #B3B7B9",
"z c #B6B9BB",
"x c #BABDBF",
"c c #BBBEC0",
"v c #BEC1C2",
"b c #C1C4C6",
"n c #C3C6C8",
"m c #C7C9CB",
"M c #C9CCCD",
"N c #CDCFD1",
"B c #CED1D2",
"V c #D2D4D5",
"C c #D7D9DA",
"Z c #DADCDD",
"A c #DEDFE0",
"S c #DFE1E2",
"D c #E3E4E5",
"F c #E7E8E8",
"G c #EBEBEC",
"H c #EFEFF0",
"J c #EFF0F1",
"K c #F3F3F3",
"L c #FBFBFB",
"P c None",
/* pixels */
"PPPPPPPPPPPPPPPPPPPPPPPPPP$$$$$@@@$$$$PPPPPPPPPPPPPPPPPPPPPPPPPP",
"PPPPPPPPPPPPPPPPPPPPPP$@@@@@@@@@@@@@@@@$$$PPPPPPPPPPPPPPPPPPPPPP",
"PPPPPPPPPPPPPPPPPPPP$@@@@@@@@@@@@@@@@@@@@@@$PPPPPPPPPPPPPPPPPPPP",
"PPPPPPPPPPPPPPPPPP@@@@@@@@@@@@@@@@@@@@@@@@@@@$PPPPPPPPPPPPPPPPPP",
"PPPPPPPPPPPPPPPP$@@@@@@@@@@@@@@@@@@@@@@@@@@@@@@$PPPPPPPPPPPPPPPP",
"PPPPPPPPPPPPPP@@@@@@@@@@@$@@@@@@@@@@@@@@@@@@@@@@@$PPPPPPPPPPPPPP",
"PPPPPPPPPPPPP@@@@@@@@@@@@@@@@@@@@@@@@@$@@@@@@@@@@@@PPPPPPPPPPPPP",
"PPPPPPPPPPP$@@@@@@@@@@@@@@@@@@@@@@@@@@@@@@@@@@@@@@@@@PPPPPPPPPPP",
"PPPPPPPPPP$@@@@@@@@@@@@@@@@@@@@@@@@@$@@@@@@@@@@@@@@@@@PPPPPPPPPP",
"PPPPPPPPP@@@@@@@@@@@@@@@@@@@@@@@@@@@@@@@@@@@@@@@@@@@@@@PPPPPPPPP",
"PPPPPPPP$@@@@@@@@@@@@@@@@@@@@@@@@@@@@@@@@@@@@@@@@@@@@@@&PPPPPPPP",
"PPPPPPP$@@@@@@@@@@@@@@@@@@@@@@$@@@@@@@@@@@@@@@@@@@@@@@@@&PPPPPPP",
"PPPPPPP@@@@@@@@@@@@@@@@@@@@@@@@@@$@@@@@@@@@@@@@@@@@@@@@@@PPPPPPP",
"PPPPPP@@@@@@@@@@@@@@@@@@@@@@@@@@@@@@@@@@@@@@@@@@@@@@@@@@@@PPPPPP",
"PPPPP$@@$@@@@@@@@$@@@@@@@@@@@@@@@@@@@@@@@@@@@$@@@@@@@@@@@@@PPPPP",
"PPPPP@@@@@@@@@@@@@@@@@@@@@@@@@@@@@@@@@@@@@@@@@@@@@@@@@@@@@@$PPPP",
"PPPP$@@@@@@@@@@@@@@@@@@@@@@@@@@@@@@@@@@@@@@@@@@@@@@@@@@@@@@@PPPP",
"PPPP@@@@@@$@@@@@@@@@@@@@@@@@@@@@@@@@@@@@@@@$@@@@@@@@@@@@@@@@@PPP",
"PPP$@@@@@@@@@@@@@@@@@@@@@@@@@@@@@@@@@@@@@@@@@@@@@@@@@@@@@@@@@PPP",
"PPP@@@@@@@@@@@@@@@@@@@@@@@@@@@@@@@@@@@@@@@@@@@@@@@@@@@@@@@@@@&PP",
"PP@@@@@@@@@@@@@@@@@@@@@@@@@@@@@@@@@@@@@@@@@@@@@@@@@@@@@@@@@@@@PP",
"PP@@@@@@@@@@@@@@@@@@@@@@@@@@@@@@@@@@@@@@@@@@@@@@@$@@@@@@@@@@@@PP",
"P$@@++@+OOO+@@@@@@@@@@@@@@@@@@+@+@@@@@@@+@@@@@@@@@@@@O@O@@@@@@@P",
"P@++OOoOoOOOOO+@@@@@@@+@OOO+@++OOO@@@OOOO+@@@@@@@@@OOOoOOO@@@@@P",
"P@@@>747444<*O++@@@@@++*4<++++$23$O+++>4-O@+@@@@+OO@>344<@OO@@@P",
"P@O&dGAZCAABd<++@@@@@@O2Zz*O+O1NS>O+O+kS7O@@@@@@+O*wvCCCMu;OO@@P",
"$@O&gJcwerycHb;O+@@@@+O>MV2OOXeGL8++O+SF;O@@@@@++@iGnueycGh&O@@@",
"@+O&hF9    =cKq#O+@@@+O*fF0ooXjJLj#O -LBOO+@@@@+O<ZZ<   *cG9o+@&",
"@@O&gGw OOo tGf$O@+@++OOwKa..=MCHZ%X 8Lg O@@++++ 7Dc@ OOO4NyOO@@",
"@@O$gFw OOo wFg$oOOOOOO.4Fz%.6ZfbK1X jK7 OOO++O O2AC> ooo&2:+@@@",
"@@+&fFq oo @jJp4$%5*$54>>MM, iJ8qGyX ZG;*2&;1&:74=gHMt<O ooO@@@@",
"@@O&fHf2337hFB49j8qj80rp%hD6OzD<=DN #KCO:td8uu98h2=iFGCvy;oO@@@@",
"@@O%gLHDDFFHn31j7gc7dcy>orKr,Bv* mK%3LhX7f9jfekz8&o$,rvGJV8OO+@@",
"@@O%gJk09071*O$=#*;@*;*O 7GgrFu@ iK6iL0 @=$=*$*=$oOoo@*-yJC3O++$",
"@@O%gFe O+++OOO+++OOOOOOO1BcvG7 X2HgMK-XO+++++OOO%*+OOOo#tKgoO@$",
"@@O%gFw OO++++@@@@@@@@@+O=kDFB<oXoDCGD O+++@+@++okJ2XOOX.1Lbo+@@",
"@@O&gFwoO@@@@@@@@@@@@@$+O+iLLh&Oo jLLl.O+@@@@@@+OyJk@.X.ouKfoO@$",
"&@O&fGwoO@@@@@@@@@@@@@@++ 8GL9oO+o8LLq.++@@@@@@+O%vKNw37lLZ>O+@@",
"P@+&dAqO+@@@@@@@@@@@@@@@+O3MC3OO+O*FK;O+@@@@@@@@+O@yZJJJGc>oO@@P",
"P@++>4;O+@@@@@@@@@@@@@@@+O$22@O++Oo37OO+@@@@@@@@++Oo+163*ooO@@@P",
"P@@@OO+@@@@@@@@@@@@@@@@@@@@OO++@++++O++@@@@@@@@@@@OOOOOOOOO@@@@P",
"P&@@@O+@@@@@@@@@@@@@@@@@@@@@@+@@@@@++@@@@@@@@@@@@@@@+++@@@@@@@@P",
"PP@@@@@@@@@@@@@@@@@@@@@@@@@@@@@@@@@@@@@@@@@@@@@@@@@@@@@@@+@@@@PP",
"PP@@@@@@@@@@@@@@@@@@@@@@@@@@@@@@@@@@@@@@@@@@@@@@@@@@@@@@@@@@@@PP",
"PPP@@@@@@@@@@@@@@@@@@@@@@@@@@@@@@@@@@@@@@@@@@@@@@@@@@@@@@@@@@@PP",
"PPP@@@@@@@@@@@@@@@@@@@@@@@@@@@@@@@@@@@@@@@@@@@@@@@@@@@@@@@@@@PPP",
"PPPP@@@@@$@@@@@@@@@@@@@@@@@@@@@@@@@@@@@@@@@@@@@@@@@@@@@@@@@@@PPP",
"PPPP@@@@@@@@@@@@@@@@@@@@@@@@@@@@@@@@@@@@@@@@@@@@@@@@@$@@@@@@PPPP",
"PPPPP@@@@@@@@@@@@@@@@@@@@@@@@@@@@@@@@@@@@@@@@@@@@@@@@@@@@@@PPPPP",
"PPPPP$@@@@@@@@@@@@@@@@@@@@@@@@@@@@@@@@@@@@@@@@@@@@@@@@@@@@$PPPPP",
"PPPPPP@@@@@@@@@@@@&@@@@@@@@@@@@@@@@@@@@@@@@@@@@@@@@@@@@@@@PPPPPP",
"PPPPPPP@@@@@@@@@@@@@@@@@@@@@@@@@@@@@@@@@@@@@@@@@@@@@@@@@@PPPPPPP",
"PPPPPPP$@@@@@@@@@@@@@@@@@@@@@@@@@@@@@@@@@@@@@@@@@@@@@@@@&PPPPPPP",
"PPPPPPPP@@@@@@@@@@@@@@@@@@@@@@@@@@@@@@@@@@@@@@@@@@@@@@@$PPPPPPPP",
"PPPPPPPPP@@@@@@@@@@@@@@@@@@@@@@@@@@@@@@@@@@@@@@@@@@@@@$PPPPPPPPP",
"PPPPPPPPPP&@@@@@@@@@@@@@@@@@@@@@@@@@@@@@@@@@@@@@@@@@@@PPPPPPPPPP",
"PPPPPPPPPPP@@@@@@@@@@@@@@@@@@@@@@@@@@@@@@@@@@@@@@@@@&PPPPPPPPPPP",
"PPPPPPPPPPPPP@@@@@@@@@@@@@@@@@@@@@@@@@@@@@@@@@@@@@@PPPPPPPPPPPPP",
"PPPPPPPPPPPPPP@@@@@@@@@@@@@@@@@@@@@@@@@@@@@@@@@@@@PPPPPPPPPPPPPP",
"PPPPPPPPPPPPPPP&@@@@@@@@@@@@@@@@@@@@@@@@@@@@@@@@PPPPPPPPPPPPPPPP",
"PPPPPPPPPPPPPPPPP&@@@@@@@@@@@@@@@@@@@@@@@@@@@@@PPPPPPPPPPPPPPPPP",
"PPPPPPPPPPPPPPPPPPP$@@@@@@@@@@@@@@@@@@@@@@@@&PPPPPPPPPPPPPPPPPPP",
"PPPPPPPPPPPPPPPPPPPPPP&@@$$@@@@@@@@@@@&@@&PPPPPPPPPPPPPPPPPPPPPP",
"PPPPPPPPPPPPPPPPPPPPPPPPPP$$$$$@@@@&&@PPPPPPPPPPPPPPPPPPPPPPPPPP"
};
