/* XPM */
static char *_0689038430d4a52992b5bee1599824c[] = {
/* columns rows colors chars-per-pixel */
"16 16 55 1 ",
"  c #3A464C",
". c #3A464D",
"X c #3A474D",
"o c #3B474E",
"O c #3B484E",
"+ c #3B484F",
"@ c #3C484F",
"# c #3D484F",
"$ c #3C494F",
"% c #3C4950",
"& c #3E4950",
"* c #3D4A50",
"= c #3D4A51",
"- c #3E4A51",
"; c #3F4A51",
": c #3F4B51",
"> c #3E4B52",
", c #404C52",
"< c #404D52",
"1 c #424E54",
"2 c #434F55",
"3 c #444F56",
"4 c #49545A",
"5 c #4F585D",
"6 c #5D656A",
"7 c #5E666A",
"8 c #626A6E",
"9 c #6E767A",
"0 c #747A7E",
"q c #7A8084",
"w c #7B8184",
"e c #7B8185",
"r c #7E8488",
"t c #7F8488",
"y c #878C8F",
"u c #878D90",
"i c #898F91",
"p c #8E9397",
"a c #93979A",
"s c #94999B",
"d c #959A9D",
"f c #969B9D",
"g c #979C9E",
"h c #999DA0",
"j c #A1A4A6",
"k c #A2A5A7",
"l c #A3A6A8",
"z c #A3A7A9",
"x c #A7AAAC",
"c c #A7ABAD",
"v c #ADB0B2",
"b c #AEB1B3",
"n c #B7BABC",
"m c #C6C8CA",
"M c None",
/* pixels */
"MMMMMM>>>>MMMMMM",
"MMMM>>>>>>>>MMMM",
"MM>>>>>>>>>>>>MM",
"MM>>>>>>>>>>>>MM",
"M>>>>>>>>>>>>>>M",
"Ooo@>@@oO@@>>oO>",
"onfwO,swta1@9fyO",
" v5c>>clkx@>pi7o",
"omy431zkkl1178vo",
" h @>@etwtO@0spo",
"O>@>>>@OOO>%>OO>",
"M>>>>>>>>>>>>>>M",
"MM>>>>>>>>>>>>MM",
"MM>>>>>>>>>>>>MM",
"MMMM>>>>>>>>MMMM",
"MMMMMM>>>>MMMMMM"
};
